<?xml version="1.0" standalone="no"?><!DOCTYPE svg PUBLIC "-//W3C//DTD SVG 1.1//EN" "http://www.w3.org/Graphics/SVG/1.1/DTD/svg11.dtd"><svg t="1667983671362" class="icon" viewBox="0 0 1024 1024" version="1.1" xmlns="http://www.w3.org/2000/svg" p-id="7614" xmlns:xlink="http://www.w3.org/1999/xlink" width="200" height="200"><path d="M411.572218 308.395836c0 0 2.940982-31.119765 7.278777-55.515385 4.367471-24.376177-11.022031-49.118698 17.275455-80.367399 28.272927-31.243585 86.318948-13.58132 86.318948-13.58132s40.71019-7.283894 68.798922 11.585873c28.039613 18.879999 14.968923 66.225307 22.465664 83.134419 7.516184 16.943904 10.05603 75.385944 10.44284 71.379701 0.38988-4.015454 24.984021-71.053266 24.984021-71.053266 9.576099-37.06722 25.511024-92.759637-12.897751-136.402623-38.404682-43.636846-110.070908-50.950416-110.070908-50.950416-151.167908 24.12342-127.862109 120.013351-126.301568 146.489352C401.387251 239.590773 411.572218 308.395836 411.572218 308.395836z" p-id="7615"></path><path d="M610.239953 396.868843c0 0 0.135076 0.11461 0.37146 0.317225C610.385263 396.96094 610.239953 396.868843 610.239953 396.868843z" p-id="7616"></path><path d="M868.165304 704.135972c-10.818393-77.990259-37.338397-182.782953-79.629595-217.195717-42.314735-34.383088-146.071843-45.220924-146.071843-45.220924s-0.841158-7.184633-2.237971-13.903661c-1.290389-6.248308-26.287713-27.786857-29.613458-30.629601 1.193175 1.192152 4.623297 6.149047 0.61296 21.424962-4.76349 18.151405-79.089289 85.150332-90.388637 88.25402-11.322883 3.100618-48.430012-30.029944-62.818721-50.375318-14.413268-20.370956-9.249665-46.454008-9.249665-46.454008-5.941316 1.311879-26.16287 38.145785-42.829458 53.772694-16.671705 15.646352-77.70271 29.089525-121.761158 45.156456-44.047192 16.092513-56.094576 111.140263-63.516616 157.00587-7.382131 45.880957-13.106506 159.773913-6.709819 198.860117 6.417153 39.076994 39.675628 83.739193 73.504084 89.983407 28.182876 5.238304 56.519248 1.320065 65.358567-1.87265 27.02961-1.39886 100.015901-5.683443 148.22181-13.279445 48.288796-7.610328 92.094488-26.753317 107.488083-34.003442 36.379559 18.125823 71.690786 32.701796 97.05343 34.0587 6.010901 11.313673 52.567239 6.114255 52.567239 6.114255s57.621349 1.421372 91.839685-28.728298C884.232235 886.898459 878.999047 782.105764 868.165304 704.135972zM687.030897 745.653551c26.367531-0.525979 34.268478 33.640168 34.268478 33.640168l-24.165376 5.577019c-12.216229-1.63729-38.504966-5.304819-60.016909-9.307993C656.712381 768.094656 665.431973 746.119155 687.030897 745.653551zM390.691655 741.871411c28.218692-9.511631 71.904657-0.297782 71.904657-0.297782l17.805528-166.393681 14.552437-24.934902 5.52483-15.696494-31.579229-19.206434 14.646582-15.810081 30.505781 20.097734 13.146415 0.24764 34.759665-25.059745 10.913561 13.199627-35.7052 23.955598-13.493316 25.03007 5.307889 18.726503-0.178055 183.297676c0 0 49.080835 14.242376 81.978083 18.076704l-0.185218 0.297782 80.031754 15.627932c-4.393054 19.629059 4.443196 56.045457 13.57518 80.860632 8.250918 22.25077 1.731434 41.883923 0.452301 55.342446-20.103874-6.502088-74.482365-24.915459-112.687502-45.562708-47.672766-25.816992-97.617271-50.751894-105.123222-51.475372-7.421017-0.685615-84.10042-26.740014-122.317837-17.384949 0.020466-0.310062 0.031722-0.485047 0.031722-0.485047-21.445428 1.966795-19.008936-12.968359-19.008936-12.968359C343.351464 781.932826 362.463754 751.338017 390.691655 741.871411zM507.085572 929.075047c-60.3239 13.546527-130.497123 13.109576-150.803611 12.647041 1.788739-26.961048 6.715959-103.229083 7.977695-122.779348 11.686157-0.873903 68.697615-3.558036 121.865535 21.823028 28.928866 13.82589 70.475098 38.33612 111.76755 59.515488C587.775312 905.352763 560.749796 917.048129 507.085572 929.075047z" p-id="7617"></path></svg>