<?xml version="1.0" standalone="no"?><!DOCTYPE svg PUBLIC "-//W3C//DTD SVG 1.1//EN" "http://www.w3.org/Graphics/SVG/1.1/DTD/svg11.dtd"><svg t="1667983605395" class="icon" viewBox="0 0 1024 1024" version="1.1" xmlns="http://www.w3.org/2000/svg" p-id="6188" xmlns:xlink="http://www.w3.org/1999/xlink" width="200" height="200"><path d="M516.352 552.192c-116.352 0-211.072-94.72-211.072-211.072 0-116.352 94.72-211.072 211.072-211.072 116.352 0 211.072 94.72 211.072 211.072 0 116.48-94.72 211.072-211.072 211.072z m0-370.944c-88.192 0-159.872 71.68-159.872 159.872 0 88.192 71.68 159.872 159.872 159.872s159.872-71.68 159.872-159.872c0-88.192-71.68-159.872-159.872-159.872z" p-id="6189"></path><path d="M858.496 843.264h-51.2c0-160.512-130.56-291.072-291.072-291.072S225.28 682.752 225.28 843.264h-51.2c0-188.672 153.472-342.272 342.272-342.272s342.144 153.6 342.144 342.272z" p-id="6190"></path><path d="M528.768 791.552l37.632-161.28a12.7872 12.7872 0 0 0-12.416-15.744H478.72c-8.192 0-14.336 7.68-12.416 15.744l37.632 161.28c3.072 13.184 21.76 13.184 24.832 0z" p-id="6191"></path></svg>