<?xml version="1.0" standalone="no"?><!DOCTYPE svg PUBLIC "-//W3C//DTD SVG 1.1//EN" "http://www.w3.org/Graphics/SVG/1.1/DTD/svg11.dtd"><svg t="1667983514106" class="icon" viewBox="0 0 1024 1024" version="1.1" xmlns="http://www.w3.org/2000/svg" p-id="5136" xmlns:xlink="http://www.w3.org/1999/xlink" width="200" height="200"><path d="M502.4 905.6H189.6c-42.4 0-76.8-34.4-76.8-76.8s34.4-76.8 76.8-76.8h217.6c20 0 36.8-16.8 36.8-36.8s-16.8-36.8-36.8-36.8H189.6c-28 0-54.4 8-76.8 21.6V154.4c0-41.6 33.6-75.2 75.2-75.2h447.2c41.6 0 75.2 33.6 75.2 75.2v295.2c0 20 16.8 36.8 36.8 36.8s36.8-16.8 36.8-36.8V154.4C784 72 716.8 5.6 634.4 5.6H188C106.4 5.6 39.2 72 39.2 154.4v674.4c0 82.4 67.2 150.4 150.4 150.4h313.6c20 0 36.8-16.8 36-36.8 0-20-16.8-36.8-36.8-36.8z" p-id="5137"></path><path d="M716.8 550.4c-108 0-196 88-196 196s88 196 196 196 196-88 196-196-88-196-196-196z m0 317.6c-67.2 0-121.6-54.4-121.6-121.6 0-67.2 54.4-121.6 121.6-121.6 67.2 0 121.6 54.4 121.6 121.6 0 67.2-54.4 121.6-121.6 121.6zM186.4 792c-20 0-36.8 16.8-36.8 36.8s16.8 36.8 36.8 36.8h243.2c20 0 36.8-16.8 36.8-36.8S449.6 792 429.6 792H186.4z" p-id="5138"></path><path d="M948 1018.4c-9.6 0-18.4-3.2-25.6-10.4l-118.4-114.4c-14.4-14.4-15.2-37.6-0.8-52s37.6-15.2 52-0.8l118.4 114.4c14.4 14.4 15.2 37.6 0.8 52-7.2 8-16.8 11.2-26.4 11.2z" p-id="5139"></path></svg>