<?xml version="1.0" standalone="no"?><!DOCTYPE svg PUBLIC "-//W3C//DTD SVG 1.1//EN" "http://www.w3.org/Graphics/SVG/1.1/DTD/svg11.dtd"><svg t="1667983466210" class="icon" viewBox="0 0 1024 1024" version="1.1" xmlns="http://www.w3.org/2000/svg" p-id="4062" xmlns:xlink="http://www.w3.org/1999/xlink" width="200" height="200"><path d="M810.666667 661.333333v192H213.333333v-192h597.333334m40.533333-85.333333H172.8c-25.6 0-44.8 19.2-44.8 44.8V896c0 23.466667 19.2 42.666667 44.8 42.666667H853.333333c23.466667 0 44.8-19.2 44.8-44.8V620.8c-2.133333-25.6-21.333333-44.8-46.933333-44.8z" p-id="4063"></path><path d="M512 469.333333m-42.666667 0a42.666667 42.666667 0 1 0 85.333334 0 42.666667 42.666667 0 1 0-85.333334 0Z" p-id="4064"></path><path d="M512 320c-23.466667 0-42.666667-19.2-42.666667-42.666667V128c0-23.466667 19.2-42.666667 42.666667-42.666667s42.666667 19.2 42.666667 42.666667v149.333333c0 23.466667-19.2 42.666667-42.666667 42.666667z" p-id="4065"></path><path d="M640 170.666667h-128c-23.466667 0-42.666667-19.2-42.666667-42.666667s19.2-42.666667 42.666667-42.666667h128c23.466667 0 42.666667 19.2 42.666667 42.666667s-19.2 42.666667-42.666667 42.666667zM512 938.666667c-23.466667 0-42.666667-19.2-42.666667-42.666667v-128c0-23.466667 19.2-42.666667 42.666667-42.666667s42.666667 19.2 42.666667 42.666667v128c0 23.466667-19.2 42.666667-42.666667 42.666667zM512 322.133333l128 102.4V576H384v-151.466667l128-102.4m0-96c-10.666667 0-19.2 4.266667-27.733333 10.666667l-168.533334 134.4c-10.666667 8.533333-17.066667 21.333333-17.066666 34.133333v211.2c0 25.6 19.2 44.8 44.8 44.8h337.066666c25.6 0 44.8-19.2 44.8-44.8V405.333333c0-12.8-6.4-25.6-17.066666-34.133333l-168.533334-134.4c-8.533333-8.533333-17.066667-10.666667-27.733333-10.666667z" p-id="4066"></path></svg>